<?xml version="1.0" encoding="UTF-8" standalone="no"?>
<!-- Created with Inkscape (http://www.inkscape.org/) -->

<svg
   width="512"
   height="512"
   viewBox="0 0 512 512"
   version="1.1"
   id="svg5"
   inkscape:version="1.1.2 (0a00cf5339, 2022-02-04)"
   sodipodi:docname="zonephotos-logo.svg"
   xmlns:inkscape="http://www.inkscape.org/namespaces/inkscape"
   xmlns:sodipodi="http://sodipodi.sourceforge.net/DTD/sodipodi-0.dtd"
   xmlns="http://www.w3.org/2000/svg"
   xmlns:svg="http://www.w3.org/2000/svg">
  <sodipodi:namedview
     id="namedview7"
     pagecolor="#ffffff"
     bordercolor="#666666"
     borderopacity="1.0"
     inkscape:pageshadow="2"
     inkscape:pageopacity="0.0"
     inkscape:pagecheckerboard="0"
     inkscape:document-units="px"
     showgrid="false"
     inkscape:zoom="4.3255048"
     inkscape:cx="237.54453"
     inkscape:cy="278.23342"
     inkscape:window-width="1920"
     inkscape:window-height="1011"
     inkscape:window-x="0"
     inkscape:window-y="0"
     inkscape:window-maximized="1"
     inkscape:current-layer="g20735" />
  <defs
     id="defs2" />
  <g
     inkscape:label="Layer 1"
     inkscape:groupmode="layer"
     id="layer1"
     style="display:inline">
    <g
       id="g20735">
      <path
         sodipodi:type="spiral"
         style="fill:#7c6680;fill-opacity:1;fill-rule:evenodd;stroke:none;stroke-opacity:1"
         id="path32"
         sodipodi:cx="243.13464"
         sodipodi:cy="238.76314"
         sodipodi:expansion="0.75999999"
         sodipodi:revolution="5"
         sodipodi:radius="50.904774"
         sodipodi:argument="-17.890099"
         sodipodi:t0="0"
         d="m 243.13464,238.76314 c 1.99409,2.84498 -2.27097,4.11751 -4.27756,2.9982 -3.75361,-2.09385 -3.3135,-7.38837 -0.79986,-10.24221 3.94417,-4.47798 11.00117,-3.71363 14.93586,0.33409 5.27793,5.42955 4.17385,14.29807 -1.25987,19.17758 -6.7659,6.07581 -17.37884,4.64503 -23.13351,-2.07992 -6.85624,-8.01226 -5.11386,-20.29991 2.83306,-26.88292 9.19484,-7.61675 23.09603,-5.57608 30.47216,3.53883 8.35804,10.3283 6.03043,25.79043 -4.20868,33.93151 -11.42202,9.08163 -28.39959,6.47672 -37.28223,-4.84996 -9.78907,-12.48252 -6.91518,-30.93576 5.46779,-40.53999 13.51453,-10.48186 33.40835,-7.34623 43.71679,6.06585 11.16128,14.52169 7.7703,35.82476 -6.64692,46.82207 -15.50688,11.82848 -38.19102,8.18782 -49.86347,-7.21317 -12.48446,-16.47238 -8.59924,-40.51204 7.7663,-52.84725 17.42011,-13.13007 42.79196,-9.00491 55.77865,8.30772 13.76609,18.35165 9.40521,45.03427 -8.83857,58.66212 -19.26835,14.39318 -47.24196,9.80044 -61.50143,-9.35984 -15.01194,-20.17136 -10.19092,-49.41762 9.87231,-64.29989 21.06169,-15.62289 51.56352,-10.57688 67.06036,10.37672 16.22652,21.9402 10.95861,53.68163 -10.87365,69.78537"
         inkscape:export-filename="/home/thomas/Documents/zonephotos50x44.png"
         inkscape:export-xdpi="34.614937"
         inkscape:export-ydpi="34.614937"
         transform="matrix(1.010104,0,0,1.0484778,11.410555,-10.42065)" />
      <text
         xml:space="preserve"
         style="font-style:normal;font-weight:normal;font-size:41.1644px;line-height:1.25;font-family:sans-serif;fill:#e4dae6;fill-opacity:1;stroke:none;stroke-width:1.02911"
         x="191.80533"
         y="323.24615"
         id="text3570"
         inkscape:export-filename="/home/thomas/Documents/zonephotos50x44.png"
         inkscape:export-xdpi="34.614937"
         inkscape:export-ydpi="34.614937"
         transform="scale(0.98152967,1.0188179)"><tspan
           sodipodi:role="line"
           id="tspan3568"
           x="191.80533"
           y="323.24615"
           style="font-style:normal;font-variant:normal;font-weight:normal;font-stretch:normal;font-family:'Tlwg Typewriter';-inkscape-font-specification:'Tlwg Typewriter';fill:#e4dae6;fill-opacity:1;stroke-width:1.02911">PHOTOS</tspan></text>
    </g>
  </g>
</svg>
